<svg width="20" height="20" viewBox="0 0 20 20" fill="none" xmlns="http://www.w3.org/2000/svg">
    <g clip-path="url(#clip0)">
        <path d="M19.7556 4.82771C19.4298 4.5019 18.9032 4.5019 18.5773 4.82771L9.99999 13.405L1.42267 4.82771C1.09686 4.5019 0.570187 4.5019 0.244373 4.82771C-0.08144 5.15352 -0.08144 5.68019 0.244373 6.00601L9.41086 15.1725C9.57335 15.335 9.78667 15.4167 10 15.4167C10.2134 15.4167 10.4267 15.335 10.5892 15.1725L19.7557 6.00601C20.0814 5.68019 20.0814 5.15352 19.7556 4.82771Z"
              fill="white"/>
    </g>
    <g clip-path="url(#clip1)">
        <path d="M19.7556 4.82771C19.4298 4.5019 18.9032 4.5019 18.5773 4.82771L9.99999 13.405L1.42267 4.82771C1.09686 4.5019 0.570187 4.5019 0.244373 4.82771C-0.08144 5.15352 -0.08144 5.68019 0.244373 6.00601L9.41086 15.1725C9.57335 15.335 9.78667 15.4167 10 15.4167C10.2134 15.4167 10.4267 15.335 10.5892 15.1725L19.7557 6.00601C20.0814 5.68019 20.0814 5.15352 19.7556 4.82771Z"
              fill="white"/>
    </g>

    <defs>
        <clipPath id="clip0">
            <rect width="20" height="20" fill="white"/>
        </clipPath>
        <clipPath id="clip1">
            <rect width="20" height="20" fill="white"/>
        </clipPath>
    </defs>
</svg>
