<svg width="46" height="46" viewBox="0 0 46 46" fill="none" xmlns="http://www.w3.org/2000/svg">
    <circle cx="23" cy="23" r="21.5" stroke="white" stroke-width="3"/>
    <path d="M31.1274 18.891C30.5104 19.1652 29.8512 19.3498 29.1551 19.4289C29.8617 19.0018 30.4102 18.332 30.6633 17.5305C29.9988 17.926 29.2658 18.2107 28.4854 18.3637C27.8578 17.6992 26.9666 17.2773 25.9805 17.2773C23.7656 17.2773 22.1361 19.3445 22.6371 21.4908C19.7842 21.3484 17.2529 19.9826 15.5602 17.9049C14.6637 19.4447 15.0961 21.4645 16.6201 22.4875C16.0559 22.4717 15.5285 22.3135 15.0645 22.0604C15.0276 23.6529 16.1666 25.14 17.8172 25.467C17.332 25.5988 16.8047 25.6305 16.2668 25.525C16.7045 26.8908 17.9701 27.8822 19.4731 27.9086C18.0281 29.0371 16.2141 29.5434 14.3895 29.3324C15.9082 30.308 17.7117 30.8723 19.6524 30.8723C26.0227 30.8723 29.6244 25.4881 29.4082 20.6629C30.0885 20.183 30.6686 19.5818 31.1274 18.891Z"
          fill="white"/>
</svg>
