<svg width="46" height="46" viewBox="0 0 46 46" fill="none" xmlns="http://www.w3.org/2000/svg">
    <path d="M23.0589 14.0342C17.775 14.0342 15.1119 17.8205 15.1119 20.9793C15.1119 22.8936 15.8343 24.5916 17.39 25.2297C17.6431 25.3352 17.8752 25.235 17.949 24.9502C18.0017 24.7551 18.123 24.2646 18.1757 24.059C18.2496 23.7795 18.2232 23.6846 18.0175 23.4367C17.5693 22.9094 17.2845 22.2238 17.2845 21.2588C17.2845 18.448 19.3886 15.9326 22.7584 15.9326C25.7431 15.9326 27.3832 17.7572 27.3832 20.1936C27.3832 23.3998 25.9646 26.1051 23.8605 26.1051C22.6951 26.1051 21.825 25.1453 22.1045 23.9641C22.4367 22.5561 23.0853 21.0373 23.0853 20.0195C23.0853 19.1072 22.5949 18.3479 21.5877 18.3479C20.4011 18.3479 19.4414 19.5766 19.4414 21.2271C19.4414 22.2766 19.7947 22.9885 19.7947 22.9885C19.7947 22.9885 18.5765 28.1459 18.3656 29.0477C17.9384 30.8459 18.3023 33.0502 18.3339 33.2717C18.3498 33.4035 18.5238 33.4352 18.5976 33.335C18.7084 33.1926 20.1216 31.4418 20.6068 29.6963C20.7439 29.2006 21.3873 26.6377 21.3873 26.6377C21.7722 27.376 22.9007 28.0246 24.1031 28.0246C27.6785 28.0246 30.1043 24.7656 30.1043 20.4045C30.099 17.1033 27.3041 14.0342 23.0589 14.0342Z"
          fill="white"/>
    <circle cx="23" cy="23" r="21.5" stroke="white" stroke-width="3"/>
</svg>
