<svg width="30" height="60" viewBox="0 0 30 60" fill="none" xmlns="http://www.w3.org/2000/svg">
    <path d="M15 0C9.17549 0 4.43707 4.81289 4.43707 10.7285V19.2718C4.43707 25.1874 9.17549 30 15 30C20.8242 30 25.5629 25.202 25.5629 19.3046V10.7285C25.5629 4.81289 20.8242 0 15 0ZM23.5761 19.3046C23.5761 24.1066 19.7291 28.0133 15 28.0133C10.2712 28.0133 6.42387 24.0918 6.42387 19.2715V10.7285C6.42387 5.90824 10.2712 1.98674 15 1.98674C19.7291 1.98674 23.5761 5.90824 23.5761 10.7285V19.3046Z"
          fill="white"/>
    <path d="M15 8.21191C14.4513 8.21191 14.0066 8.65664 14.0066 9.20531V12.6821C14.0066 13.2308 14.4513 13.6755 15 13.6755C15.5487 13.6755 15.9934 13.2308 15.9934 12.6821V9.20531C15.9934 8.65664 15.5487 8.21191 15 8.21191Z"
          fill="white"/>
    <g clip-path="url(#clip0)">
        <path d="M24.7556 34.8277C24.4298 34.5019 23.9032 34.5019 23.5773 34.8277L15 43.405L6.42267 34.8277C6.09686 34.5019 5.57019 34.5019 5.24437 34.8277C4.91856 35.1535 4.91856 35.6802 5.24437 36.006L14.4109 45.1725C14.5734 45.335 14.7867 45.4167 15 45.4167C15.2134 45.4167 15.4267 45.335 15.5892 45.1725L24.7557 36.006C25.0814 35.6802 25.0814 35.1535 24.7556 34.8277Z"
              fill="white"/>
    </g>
    <g clip-path="url(#clip1)">
        <path d="M24.7556 44.8277C24.4298 44.5019 23.9032 44.5019 23.5773 44.8277L15 53.405L6.42267 44.8277C6.09686 44.5019 5.57019 44.5019 5.24437 44.8277C4.91856 45.1535 4.91856 45.6802 5.24437 46.006L14.4109 55.1725C14.5734 55.335 14.7867 55.4167 15 55.4167C15.2134 55.4167 15.4267 55.335 15.5892 55.1725L24.7557 46.006C25.0814 45.6802 25.0814 45.1535 24.7556 44.8277Z"
              fill="white"/>
    </g>
    <defs>
        <clipPath id="clip0">
            <rect width="20" height="20" fill="white" transform="translate(5 30)"/>
        </clipPath>
        <clipPath id="clip1">
            <rect width="20" height="20" fill="white" transform="translate(5 40)"/>
        </clipPath>
    </defs>
</svg>
