<svg width="30" height="30" viewBox="0 0 30 30" fill="none" xmlns="http://www.w3.org/2000/svg">
    <path d="M15 0C9.17549 0 4.43707 4.81289 4.43707 10.7285V19.2718C4.43707 25.1874 9.17549 30 15 30C20.8242 30 25.5629 25.202 25.5629 19.3046V10.7285C25.5629 4.81289 20.8242 0 15 0ZM23.5761 19.3046C23.5761 24.1066 19.7291 28.0133 15 28.0133C10.2712 28.0133 6.42387 24.0918 6.42387 19.2715V10.7285C6.42387 5.90824 10.2712 1.98674 15 1.98674C19.7291 1.98674 23.5761 5.90824 23.5761 10.7285V19.3046Z"
          fill="white"/>
    <path d="M15 8.21191C14.4513 8.21191 14.0066 8.65664 14.0066 9.20531V12.6821C14.0066 13.2308 14.4513 13.6755 15 13.6755C15.5487 13.6755 15.9934 13.2308 15.9934 12.6821V9.20531C15.9934 8.65664 15.5487 8.21191 15 8.21191Z"
          fill="white"/>
</svg>
